<svg xmlns="http://www.w3.org/2000/svg" xmlns:xlink="http://www.w3.org/1999/xlink" width="500" zoomAndPan="magnify" viewBox="0 0 375 374.999991" height="500" preserveAspectRatio="xMidYMid meet" version="1.0"><defs><g/><clipPath id="f322a7751d"><path d="M 37.5 37.5 L 337.5 37.5 L 337.5 337.5 L 37.5 337.5 Z M 37.5 37.5 " clip-rule="nonzero"/></clipPath><clipPath id="806293510d"><path d="M 77.039062 82.089844 L 298.289062 82.089844 L 298.289062 205.089844 L 77.039062 205.089844 Z M 77.039062 82.089844 " clip-rule="nonzero"/></clipPath></defs><g clip-path="url(#f322a7751d)"><path fill="#ed6b5b" d="M 187.5 337.5 C 104.816406 337.5 37.5 270.183594 37.5 187.5 C 37.5 104.816406 104.816406 37.5 187.5 37.5 C 270.183594 37.5 337.5 104.816406 337.5 187.5 C 337.5 270.183594 270.183594 337.5 187.5 337.5 Z M 187.5 39.714844 C 105.996094 39.714844 39.714844 105.996094 39.714844 187.5 C 39.714844 269.003906 105.996094 335.285156 187.5 335.285156 C 269.003906 335.285156 335.285156 269.003906 335.285156 187.5 C 335.285156 105.996094 269.003906 39.714844 187.5 39.714844 Z M 187.5 39.714844 " fill-opacity="1" fill-rule="nonzero"/></g><g clip-path="url(#806293510d)"><path fill="#165954" d="M 239.011719 140.101562 C 231.144531 134.535156 218.964844 124.136719 187.636719 124.136719 L 187.257812 124.136719 C 155.929688 124.136719 143.75 134.535156 135.878906 140.101562 C 128.011719 145.679688 128.773438 137.574219 128.773438 137.574219 C 128.773438 137.574219 138.667969 116.035156 187.257812 116.035156 L 187.636719 116.035156 C 236.226562 116.035156 246.121094 137.574219 246.121094 137.574219 C 246.121094 137.574219 246.882812 145.679688 239.011719 140.101562 Z M 187.515625 82.089844 L 77.152344 138.078125 L 94.792969 143.539062 L 94.605469 184.726562 L 89.832031 191.984375 L 89.832031 205.089844 L 102.574219 205.089844 L 102.574219 191.984375 L 97.839844 184.871094 L 97.933594 144.488281 L 129.914062 154.300781 L 130.171875 168.984375 C 130.171875 168.984375 153.507812 149.738281 187.515625 149.738281 C 221.507812 149.738281 245.101562 168.996094 245.101562 168.996094 L 245.363281 154.3125 L 298.121094 138.09375 L 187.515625 82.089844 " fill-opacity="1" fill-rule="nonzero"/></g><g fill="#165954" fill-opacity="1"><g transform="translate(123.33398, 264.382951)"><g><path d="M 34.71875 0.71875 C 28.644531 0.71875 23.332031 -0.414062 18.78125 -2.6875 C 14.238281 -4.96875 10.726562 -8.160156 8.25 -12.265625 C 5.78125 -16.378906 4.546875 -21.1875 4.546875 -26.6875 C 4.546875 -33.789062 6.140625 -40.175781 9.328125 -45.84375 C 12.523438 -51.507812 16.957031 -55.957031 22.625 -59.1875 C 28.289062 -62.425781 34.710938 -64.046875 41.890625 -64.046875 C 54.421875 -64.046875 63.117188 -59.457031 67.984375 -50.28125 L 58.296875 -44.890625 C 54.941406 -50.953125 49.195312 -53.984375 41.0625 -53.984375 C 36.351562 -53.984375 32.101562 -52.84375 28.3125 -50.5625 C 24.519531 -48.289062 21.546875 -45.117188 19.390625 -41.046875 C 17.234375 -36.984375 16.15625 -32.359375 16.15625 -27.171875 C 16.15625 -21.585938 17.8125 -17.21875 21.125 -14.0625 C 24.4375 -10.914062 29.125 -9.34375 35.1875 -9.34375 C 39.019531 -9.34375 42.59375 -10.097656 45.90625 -11.609375 C 49.21875 -13.128906 51.953125 -15.363281 54.109375 -18.3125 L 62.484375 -12.328125 C 59.535156 -8.253906 55.585938 -5.0625 50.640625 -2.75 C 45.691406 -0.4375 40.382812 0.71875 34.71875 0.71875 Z M 34.71875 0.71875 "/></g></g></g><g fill="#165954" fill-opacity="1"><g transform="translate(191.686664, 264.382951)"><g><path d="M 24.65625 0.71875 C 19.394531 0.71875 14.390625 0.0390625 9.640625 -1.3125 C 4.890625 -2.675781 1.195312 -4.429688 -1.4375 -6.578125 L 3.703125 -15.6875 C 6.179688 -13.6875 9.394531 -12.109375 13.34375 -10.953125 C 17.289062 -9.796875 21.421875 -9.21875 25.734375 -9.21875 C 31.160156 -9.21875 35.289062 -10.035156 38.125 -11.671875 C 40.957031 -13.304688 42.375 -15.597656 42.375 -18.546875 C 42.375 -20.941406 41.234375 -22.65625 38.953125 -23.6875 C 36.679688 -24.726562 33.15625 -25.769531 28.375 -26.8125 C 23.90625 -27.769531 20.253906 -28.75 17.421875 -29.75 C 14.585938 -30.75 12.171875 -32.34375 10.171875 -34.53125 C 8.179688 -36.726562 7.1875 -39.703125 7.1875 -43.453125 C 7.1875 -47.597656 8.363281 -51.226562 10.71875 -54.34375 C 13.070312 -57.457031 16.421875 -59.851562 20.765625 -61.53125 C 25.117188 -63.207031 30.164062 -64.046875 35.90625 -64.046875 C 40.132812 -64.046875 44.242188 -63.523438 48.234375 -62.484375 C 52.222656 -61.441406 55.5 -60.046875 58.0625 -58.296875 L 53.5 -49.203125 C 51.03125 -50.878906 48.160156 -52.132812 44.890625 -52.96875 C 41.617188 -53.800781 38.265625 -54.21875 34.828125 -54.21875 C 29.640625 -54.21875 25.648438 -53.359375 22.859375 -51.640625 C 20.066406 -49.929688 18.671875 -47.640625 18.671875 -44.765625 C 18.671875 -42.210938 19.828125 -40.394531 22.140625 -39.3125 C 24.453125 -38.238281 28.046875 -37.1875 32.921875 -36.15625 C 37.304688 -35.195312 40.894531 -34.238281 43.6875 -33.28125 C 46.476562 -32.320312 48.851562 -30.765625 50.8125 -28.609375 C 52.769531 -26.453125 53.75 -23.539062 53.75 -19.875 C 53.75 -13.40625 51.09375 -8.351562 45.78125 -4.71875 C 40.476562 -1.09375 33.4375 0.71875 24.65625 0.71875 Z M 24.65625 0.71875 "/></g></g></g></svg>