<svg xmlns="http://www.w3.org/2000/svg" xmlns:xlink="http://www.w3.org/1999/xlink" width="500" zoomAndPan="magnify" viewBox="0 0 375 74.999997" height="100" preserveAspectRatio="xMidYMid meet" version="1.0"><defs><g/><clipPath id="07f04a019c"><path d="M 7.5 18.574219 L 95.25 18.574219 L 95.25 67.324219 L 7.5 67.324219 Z M 7.5 18.574219 " clip-rule="nonzero"/></clipPath></defs><rect x="-37.5" width="450" fill="#ffffff" y="-7.5" height="89.999996" fill-opacity="1"/><rect x="-37.5" width="450" fill="#ffffff" y="-7.5" height="89.999996" fill-opacity="1"/><rect x="-37.5" width="450" fill="#ffffff" y="-7.5" height="89.999996" fill-opacity="1"/><path stroke-linecap="butt" transform="matrix(0.000000000000000092, 1.5, -1.5, 0.000000000000000092, 111.446, 7.499998)" fill="none" stroke-linejoin="miter" d="M 0.000001075 0.000458332 L 40.000004 0.000458332 " stroke="#ed6b5b" stroke-width="1" stroke-opacity="1" stroke-miterlimit="4"/><g fill="#f9ac66" fill-opacity="1"><g transform="translate(127.994969, 48.374995)"><g><path d="M 9.28125 0.1875 C 7.65625 0.1875 6.234375 -0.113281 5.015625 -0.71875 C 3.804688 -1.320312 2.867188 -2.171875 2.203125 -3.265625 C 1.546875 -4.367188 1.21875 -5.660156 1.21875 -7.140625 C 1.21875 -9.035156 1.644531 -10.738281 2.5 -12.25 C 3.351562 -13.769531 4.535156 -14.960938 6.046875 -15.828125 C 7.554688 -16.691406 9.273438 -17.125 11.203125 -17.125 C 14.546875 -17.125 16.867188 -15.894531 18.171875 -13.4375 L 15.578125 -12 C 14.679688 -13.625 13.144531 -14.4375 10.96875 -14.4375 C 9.71875 -14.4375 8.582031 -14.128906 7.5625 -13.515625 C 6.550781 -12.910156 5.753906 -12.0625 5.171875 -10.96875 C 4.597656 -9.882812 4.3125 -8.648438 4.3125 -7.265625 C 4.3125 -5.773438 4.753906 -4.609375 5.640625 -3.765625 C 6.523438 -2.921875 7.78125 -2.5 9.40625 -2.5 C 10.425781 -2.5 11.378906 -2.703125 12.265625 -3.109375 C 13.148438 -3.515625 13.882812 -4.109375 14.46875 -4.890625 L 16.703125 -3.296875 C 15.910156 -2.203125 14.851562 -1.347656 13.53125 -0.734375 C 12.207031 -0.117188 10.789062 0.1875 9.28125 0.1875 Z M 9.28125 0.1875 "/></g></g></g><g fill="#f9ac66" fill-opacity="1"><g transform="translate(146.262473, 48.374995)"><g><path d="M 4.609375 -16.953125 L 7.6875 -16.953125 L 4.3125 0 L 1.25 0 Z M 7.03125 -20.21875 C 6.476562 -20.21875 6.019531 -20.398438 5.65625 -20.765625 C 5.300781 -21.128906 5.125 -21.566406 5.125 -22.078125 C 5.125 -22.671875 5.328125 -23.175781 5.734375 -23.59375 C 6.148438 -24.007812 6.679688 -24.21875 7.328125 -24.21875 C 7.878906 -24.21875 8.34375 -24.039062 8.71875 -23.6875 C 9.09375 -23.34375 9.28125 -22.925781 9.28125 -22.4375 C 9.28125 -21.769531 9.070312 -21.234375 8.65625 -20.828125 C 8.238281 -20.421875 7.695312 -20.21875 7.03125 -20.21875 Z M 7.03125 -20.21875 "/></g></g></g><g fill="#f9ac66" fill-opacity="1"><g transform="translate(155.18828, 48.374995)"><g><path d="M 7.078125 -14.4375 C 7.816406 -15.375 8.726562 -16.054688 9.8125 -16.484375 C 10.90625 -16.910156 12.234375 -17.125 13.796875 -17.125 L 13.21875 -14.140625 C 13.019531 -14.160156 12.753906 -14.171875 12.421875 -14.171875 C 8.898438 -14.171875 6.765625 -12.273438 6.015625 -8.484375 L 4.3125 0 L 1.25 0 L 4.609375 -16.953125 L 7.546875 -16.953125 Z M 7.078125 -14.4375 "/></g></g></g><g fill="#f9ac66" fill-opacity="1"><g transform="translate(168.30505, 48.374995)"><g><path d="M 9.28125 0.1875 C 7.65625 0.1875 6.234375 -0.113281 5.015625 -0.71875 C 3.804688 -1.320312 2.867188 -2.171875 2.203125 -3.265625 C 1.546875 -4.367188 1.21875 -5.660156 1.21875 -7.140625 C 1.21875 -9.035156 1.644531 -10.738281 2.5 -12.25 C 3.351562 -13.769531 4.535156 -14.960938 6.046875 -15.828125 C 7.554688 -16.691406 9.273438 -17.125 11.203125 -17.125 C 14.546875 -17.125 16.867188 -15.894531 18.171875 -13.4375 L 15.578125 -12 C 14.679688 -13.625 13.144531 -14.4375 10.96875 -14.4375 C 9.71875 -14.4375 8.582031 -14.128906 7.5625 -13.515625 C 6.550781 -12.910156 5.753906 -12.0625 5.171875 -10.96875 C 4.597656 -9.882812 4.3125 -8.648438 4.3125 -7.265625 C 4.3125 -5.773438 4.753906 -4.609375 5.640625 -3.765625 C 6.523438 -2.921875 7.78125 -2.5 9.40625 -2.5 C 10.425781 -2.5 11.378906 -2.703125 12.265625 -3.109375 C 13.148438 -3.515625 13.882812 -4.109375 14.46875 -4.890625 L 16.703125 -3.296875 C 15.910156 -2.203125 14.851562 -1.347656 13.53125 -0.734375 C 12.207031 -0.117188 10.789062 0.1875 9.28125 0.1875 Z M 9.28125 0.1875 "/></g></g></g><g fill="#f9ac66" fill-opacity="1"><g transform="translate(186.572554, 48.374995)"><g><path d="M 5.984375 -23.75 L 9.0625 -23.75 L 4.3125 0 L 1.25 0 Z M 5.984375 -23.75 "/></g></g></g><g fill="#f9ac66" fill-opacity="1"><g transform="translate(195.498362, 48.374995)"><g><path d="M 4.21875 -7.515625 L 4.21875 -7.328125 C 4.21875 -5.742188 4.664062 -4.539062 5.5625 -3.71875 C 6.457031 -2.90625 7.800781 -2.5 9.59375 -2.5 C 10.644531 -2.5 11.628906 -2.671875 12.546875 -3.015625 C 13.460938 -3.367188 14.226562 -3.847656 14.84375 -4.453125 L 16.15625 -2.234375 C 15.320312 -1.472656 14.304688 -0.878906 13.109375 -0.453125 C 11.921875 -0.0234375 10.664062 0.1875 9.34375 0.1875 C 7.675781 0.1875 6.234375 -0.109375 5.015625 -0.703125 C 3.804688 -1.296875 2.867188 -2.144531 2.203125 -3.25 C 1.546875 -4.363281 1.21875 -5.671875 1.21875 -7.171875 C 1.21875 -9.066406 1.628906 -10.769531 2.453125 -12.28125 C 3.273438 -13.800781 4.414062 -14.988281 5.875 -15.84375 C 7.332031 -16.695312 8.96875 -17.125 10.78125 -17.125 C 13.082031 -17.125 14.921875 -16.46875 16.296875 -15.15625 C 17.679688 -13.84375 18.375 -12.054688 18.375 -9.796875 C 18.375 -9.109375 18.296875 -8.347656 18.140625 -7.515625 Z M 10.65625 -14.5625 C 9.144531 -14.5625 7.84375 -14.132812 6.75 -13.28125 C 5.664062 -12.425781 4.929688 -11.253906 4.546875 -9.765625 L 15.484375 -9.765625 C 15.566406 -11.273438 15.164062 -12.453125 14.28125 -13.296875 C 13.394531 -14.140625 12.1875 -14.5625 10.65625 -14.5625 Z M 10.65625 -14.5625 "/></g></g></g><g fill="#f9ac66" fill-opacity="1"><g transform="translate(215.045555, 48.374995)"><g/></g></g><g fill="#f9ac66" fill-opacity="1"><g transform="translate(223.651443, 48.374995)"><g><path d="M 6.59375 0.1875 C 5.1875 0.1875 3.847656 0.0078125 2.578125 -0.34375 C 1.304688 -0.707031 0.316406 -1.179688 -0.390625 -1.765625 L 0.984375 -4.1875 C 1.648438 -3.65625 2.507812 -3.234375 3.5625 -2.921875 C 4.625 -2.617188 5.726562 -2.46875 6.875 -2.46875 C 8.332031 -2.46875 9.4375 -2.6875 10.1875 -3.125 C 10.945312 -3.5625 11.328125 -4.171875 11.328125 -4.953125 C 11.328125 -5.597656 11.019531 -6.054688 10.40625 -6.328125 C 9.800781 -6.609375 8.859375 -6.890625 7.578125 -7.171875 C 6.390625 -7.421875 5.414062 -7.679688 4.65625 -7.953125 C 3.894531 -8.222656 3.25 -8.648438 2.71875 -9.234375 C 2.1875 -9.816406 1.921875 -10.609375 1.921875 -11.609375 C 1.921875 -12.722656 2.234375 -13.695312 2.859375 -14.53125 C 3.492188 -15.363281 4.390625 -16.003906 5.546875 -16.453125 C 6.710938 -16.898438 8.0625 -17.125 9.59375 -17.125 C 10.726562 -17.125 11.828125 -16.984375 12.890625 -16.703125 C 13.960938 -16.421875 14.835938 -16.046875 15.515625 -15.578125 L 14.296875 -13.15625 C 13.640625 -13.601562 12.875 -13.9375 12 -14.15625 C 11.125 -14.382812 10.226562 -14.5 9.3125 -14.5 C 7.925781 -14.5 6.859375 -14.269531 6.109375 -13.8125 C 5.359375 -13.351562 4.984375 -12.738281 4.984375 -11.96875 C 4.984375 -11.28125 5.289062 -10.789062 5.90625 -10.5 C 6.53125 -10.21875 7.492188 -9.9375 8.796875 -9.65625 C 9.972656 -9.40625 10.929688 -9.148438 11.671875 -8.890625 C 12.421875 -8.640625 13.054688 -8.222656 13.578125 -7.640625 C 14.109375 -7.066406 14.375 -6.289062 14.375 -5.3125 C 14.375 -3.582031 13.660156 -2.234375 12.234375 -1.265625 C 10.816406 -0.296875 8.9375 0.1875 6.59375 0.1875 Z M 6.59375 0.1875 "/></g></g></g><g fill="#f9ac66" fill-opacity="1"><g transform="translate(239.679499, 48.374995)"><g><path d="M 5.796875 -5.40625 C 5.734375 -5.082031 5.703125 -4.785156 5.703125 -4.515625 C 5.703125 -3.828125 5.882812 -3.300781 6.25 -2.9375 C 6.625 -2.582031 7.1875 -2.40625 7.9375 -2.40625 C 8.832031 -2.40625 9.644531 -2.671875 10.375 -3.203125 L 11.015625 -0.859375 C 9.984375 -0.160156 8.671875 0.1875 7.078125 0.1875 C 5.734375 0.1875 4.648438 -0.1875 3.828125 -0.9375 C 3.003906 -1.695312 2.59375 -2.738281 2.59375 -4.0625 C 2.59375 -4.507812 2.632812 -4.9375 2.71875 -5.34375 L 4.546875 -14.4375 L 1.65625 -14.4375 L 2.140625 -16.953125 L 5.0625 -16.953125 L 5.796875 -20.671875 L 8.859375 -20.671875 L 8.125 -16.953125 L 12.984375 -16.953125 L 12.484375 -14.4375 L 7.609375 -14.4375 Z M 5.796875 -5.40625 "/></g></g></g><g fill="#f9ac66" fill-opacity="1"><g transform="translate(252.924238, 48.374995)"><g><path d="M 20.421875 -16.953125 L 17.0625 0 L 14.109375 0 L 14.53125 -2.171875 C 13.757812 -1.378906 12.851562 -0.785156 11.8125 -0.390625 C 10.78125 -0.00390625 9.660156 0.1875 8.453125 0.1875 C 6.566406 0.1875 5.082031 -0.3125 4 -1.3125 C 2.914062 -2.3125 2.375 -3.707031 2.375 -5.5 C 2.375 -6.101562 2.4375 -6.753906 2.5625 -7.453125 L 4.453125 -16.953125 L 7.515625 -16.953125 L 5.625 -7.421875 C 5.519531 -6.847656 5.46875 -6.367188 5.46875 -5.984375 C 5.46875 -4.867188 5.789062 -4.019531 6.4375 -3.4375 C 7.09375 -2.851562 8.0625 -2.5625 9.34375 -2.5625 C 10.96875 -2.5625 12.316406 -3.019531 13.390625 -3.9375 C 14.472656 -4.851562 15.191406 -6.195312 15.546875 -7.96875 L 17.34375 -16.953125 Z M 20.421875 -16.953125 "/></g></g></g><g fill="#f9ac66" fill-opacity="1"><g transform="translate(274.582912, 48.374995)"><g><path d="M 21.953125 -23.75 L 17.21875 0 L 14.265625 0 L 14.6875 -2.078125 C 13.914062 -1.347656 13.023438 -0.785156 12.015625 -0.390625 C 11.003906 -0.00390625 9.898438 0.1875 8.703125 0.1875 C 7.253906 0.1875 5.960938 -0.101562 4.828125 -0.6875 C 3.703125 -1.269531 2.816406 -2.113281 2.171875 -3.21875 C 1.535156 -4.332031 1.21875 -5.640625 1.21875 -7.140625 C 1.21875 -9.054688 1.632812 -10.769531 2.46875 -12.28125 C 3.300781 -13.800781 4.445312 -14.988281 5.90625 -15.84375 C 7.363281 -16.695312 9 -17.125 10.8125 -17.125 C 12.257812 -17.125 13.507812 -16.859375 14.5625 -16.328125 C 15.625 -15.804688 16.421875 -15.046875 16.953125 -14.046875 L 18.875 -23.75 Z M 9.375 -2.5 C 10.632812 -2.5 11.769531 -2.800781 12.78125 -3.40625 C 13.789062 -4.007812 14.578125 -4.851562 15.140625 -5.9375 C 15.710938 -7.03125 16 -8.269531 16 -9.65625 C 16 -11.175781 15.5625 -12.351562 14.6875 -13.1875 C 13.8125 -14.019531 12.5625 -14.4375 10.9375 -14.4375 C 9.6875 -14.4375 8.554688 -14.128906 7.546875 -13.515625 C 6.546875 -12.910156 5.753906 -12.0625 5.171875 -10.96875 C 4.597656 -9.882812 4.3125 -8.648438 4.3125 -7.265625 C 4.3125 -5.773438 4.753906 -4.609375 5.640625 -3.765625 C 6.523438 -2.921875 7.769531 -2.5 9.375 -2.5 Z M 9.375 -2.5 "/></g></g></g><g fill="#f9ac66" fill-opacity="1"><g transform="translate(296.401552, 48.374995)"><g><path d="M 4.21875 -7.515625 L 4.21875 -7.328125 C 4.21875 -5.742188 4.664062 -4.539062 5.5625 -3.71875 C 6.457031 -2.90625 7.800781 -2.5 9.59375 -2.5 C 10.644531 -2.5 11.628906 -2.671875 12.546875 -3.015625 C 13.460938 -3.367188 14.226562 -3.847656 14.84375 -4.453125 L 16.15625 -2.234375 C 15.320312 -1.472656 14.304688 -0.878906 13.109375 -0.453125 C 11.921875 -0.0234375 10.664062 0.1875 9.34375 0.1875 C 7.675781 0.1875 6.234375 -0.109375 5.015625 -0.703125 C 3.804688 -1.296875 2.867188 -2.144531 2.203125 -3.25 C 1.546875 -4.363281 1.21875 -5.671875 1.21875 -7.171875 C 1.21875 -9.066406 1.628906 -10.769531 2.453125 -12.28125 C 3.273438 -13.800781 4.414062 -14.988281 5.875 -15.84375 C 7.332031 -16.695312 8.96875 -17.125 10.78125 -17.125 C 13.082031 -17.125 14.921875 -16.46875 16.296875 -15.15625 C 17.679688 -13.84375 18.375 -12.054688 18.375 -9.796875 C 18.375 -9.109375 18.296875 -8.347656 18.140625 -7.515625 Z M 10.65625 -14.5625 C 9.144531 -14.5625 7.84375 -14.132812 6.75 -13.28125 C 5.664062 -12.425781 4.929688 -11.253906 4.546875 -9.765625 L 15.484375 -9.765625 C 15.566406 -11.273438 15.164062 -12.453125 14.28125 -13.296875 C 13.394531 -14.140625 12.1875 -14.5625 10.65625 -14.5625 Z M 10.65625 -14.5625 "/></g></g></g><g fill="#f9ac66" fill-opacity="1"><g transform="translate(315.948745, 48.374995)"><g><path d="M 13.28125 -17.125 C 15.21875 -17.125 16.722656 -16.628906 17.796875 -15.640625 C 18.878906 -14.660156 19.421875 -13.273438 19.421875 -11.484375 C 19.421875 -10.867188 19.359375 -10.207031 19.234375 -9.5 L 17.34375 0 L 14.265625 0 L 16.15625 -9.5 C 16.257812 -10.082031 16.3125 -10.550781 16.3125 -10.90625 C 16.3125 -12.019531 15.984375 -12.875 15.328125 -13.46875 C 14.671875 -14.070312 13.691406 -14.375 12.390625 -14.375 C 10.722656 -14.375 9.347656 -13.914062 8.265625 -13 C 7.191406 -12.09375 6.472656 -10.742188 6.109375 -8.953125 L 4.3125 0 L 1.25 0 L 4.609375 -16.953125 L 7.546875 -16.953125 L 7.140625 -14.78125 C 8.671875 -16.34375 10.71875 -17.125 13.28125 -17.125 Z M 13.28125 -17.125 "/></g></g></g><g fill="#f9ac66" fill-opacity="1"><g transform="translate(337.735399, 48.374995)"><g><path d="M 5.796875 -5.40625 C 5.734375 -5.082031 5.703125 -4.785156 5.703125 -4.515625 C 5.703125 -3.828125 5.882812 -3.300781 6.25 -2.9375 C 6.625 -2.582031 7.1875 -2.40625 7.9375 -2.40625 C 8.832031 -2.40625 9.644531 -2.671875 10.375 -3.203125 L 11.015625 -0.859375 C 9.984375 -0.160156 8.671875 0.1875 7.078125 0.1875 C 5.734375 0.1875 4.648438 -0.1875 3.828125 -0.9375 C 3.003906 -1.695312 2.59375 -2.738281 2.59375 -4.0625 C 2.59375 -4.507812 2.632812 -4.9375 2.71875 -5.34375 L 4.546875 -14.4375 L 1.65625 -14.4375 L 2.140625 -16.953125 L 5.0625 -16.953125 L 5.796875 -20.671875 L 8.859375 -20.671875 L 8.125 -16.953125 L 12.984375 -16.953125 L 12.484375 -14.4375 L 7.609375 -14.4375 Z M 5.796875 -5.40625 "/></g></g></g><g fill="#f9ac66" fill-opacity="1"><g transform="translate(350.980149, 48.374995)"><g><path d="M 6.59375 0.1875 C 5.1875 0.1875 3.847656 0.0078125 2.578125 -0.34375 C 1.304688 -0.707031 0.316406 -1.179688 -0.390625 -1.765625 L 0.984375 -4.1875 C 1.648438 -3.65625 2.507812 -3.234375 3.5625 -2.921875 C 4.625 -2.617188 5.726562 -2.46875 6.875 -2.46875 C 8.332031 -2.46875 9.4375 -2.6875 10.1875 -3.125 C 10.945312 -3.5625 11.328125 -4.171875 11.328125 -4.953125 C 11.328125 -5.597656 11.019531 -6.054688 10.40625 -6.328125 C 9.800781 -6.609375 8.859375 -6.890625 7.578125 -7.171875 C 6.390625 -7.421875 5.414062 -7.679688 4.65625 -7.953125 C 3.894531 -8.222656 3.25 -8.648438 2.71875 -9.234375 C 2.1875 -9.816406 1.921875 -10.609375 1.921875 -11.609375 C 1.921875 -12.722656 2.234375 -13.695312 2.859375 -14.53125 C 3.492188 -15.363281 4.390625 -16.003906 5.546875 -16.453125 C 6.710938 -16.898438 8.0625 -17.125 9.59375 -17.125 C 10.726562 -17.125 11.828125 -16.984375 12.890625 -16.703125 C 13.960938 -16.421875 14.835938 -16.046875 15.515625 -15.578125 L 14.296875 -13.15625 C 13.640625 -13.601562 12.875 -13.9375 12 -14.15625 C 11.125 -14.382812 10.226562 -14.5 9.3125 -14.5 C 7.925781 -14.5 6.859375 -14.269531 6.109375 -13.8125 C 5.359375 -13.351562 4.984375 -12.738281 4.984375 -11.96875 C 4.984375 -11.28125 5.289062 -10.789062 5.90625 -10.5 C 6.53125 -10.21875 7.492188 -9.9375 8.796875 -9.65625 C 9.972656 -9.40625 10.929688 -9.148438 11.671875 -8.890625 C 12.421875 -8.640625 13.054688 -8.222656 13.578125 -7.640625 C 14.109375 -7.066406 14.375 -6.289062 14.375 -5.3125 C 14.375 -3.582031 13.660156 -2.234375 12.234375 -1.265625 C 10.816406 -0.296875 8.9375 0.1875 6.59375 0.1875 Z M 6.59375 0.1875 "/></g></g></g><g clip-path="url(#07f04a019c)"><path fill="#f9ac66" d="M 71.738281 41.566406 C 68.617188 39.363281 63.789062 35.242188 51.363281 35.242188 L 51.214844 35.242188 C 38.789062 35.242188 33.960938 39.363281 30.839844 41.566406 C 27.71875 43.777344 28.019531 40.566406 28.019531 40.566406 C 28.019531 40.566406 31.945312 32.027344 51.214844 32.027344 L 51.363281 32.027344 C 70.632812 32.027344 74.558594 40.566406 74.558594 40.566406 C 74.558594 40.566406 74.859375 43.777344 71.738281 41.566406 Z M 51.316406 18.574219 L 7.550781 40.765625 L 14.546875 42.929688 L 14.472656 59.253906 L 12.578125 62.132812 L 12.578125 67.324219 L 17.632812 67.324219 L 17.632812 62.132812 L 15.753906 59.3125 L 15.792969 43.308594 L 28.472656 47.195312 L 28.578125 53.015625 C 28.578125 53.015625 37.832031 45.386719 51.316406 45.386719 C 64.796875 45.386719 74.152344 53.019531 74.152344 53.019531 L 74.253906 47.199219 L 95.179688 40.773438 L 51.316406 18.574219 " fill-opacity="1" fill-rule="nonzero"/></g></svg>